<svg xmlns="http://www.w3.org/2000/svg" width="80" height="75" fill="none" viewBox="0 0 80 75">
  <path fill="#D5D3DD" d="M64.5078 20.499v.75c0 .415.335.7499.75.7499.4149 0 .7499-.3349.7499-.7499v-.75h-1.4999Zm-3 0v.75c0 .415.335.7499.75.7499.4149 0 .7499-.3349.7499-.7499v-.75h-1.4999Zm-3 0v.75c0 .415.335.7499.75.7499.4149 0 .7499-.3349.7499-.7499v-.75h-1.4999Zm-2.9961 0v.75c0 .415.335.7499.75.7499s.7499-.3349.7499-.7499v-.75h-1.4999Zm7.4961 4.9997v-.75c0-.4149.335-.7499.75-.7499.4149 0 .7499.335.7499.7499v.75h-1.4999Zm-3 0v-.75c0-.4149.335-.7499.75-.7499.4149 0 .7499.335.7499.7499v.75h-1.4999Zm-3.0039 0v-.75c0-.4149.335-.7499.75-.7499.4149 0 .7499.335.7499.7499v.75h-1.4999Zm-2.9961 0v-.75c0-.4149.335-.7499.75-.7499.4149 0 .7499.335.7499.7499v.75h-1.4999Z"/>
  <path fill="#E2CBB5" d="m73.0022 48.2902 3.7073 3.7073H66.0026v-3.9998c0-.5524-.4475-.9999-1-.9999h-9.6745c-1.1549 2.4399-3.6023 3.9998-6.3246 3.9998H47.711l-3.7073 3.7073V43.998h3.9998c.5525 0 1-.4475 1-1v-3.9998h-1c-3.8598 0-6.9996-3.1398-6.9996-6.9996v-4.9997l2.4999-1v-.9999c0-.5525.4474-.9999.9999-.9999s1 .4474 1 .9999v.75c0 .1374.1125.2499.2499.2499.1375 0 .25-.1125.25-.2499v-.75c0-.5525.4475-.9999 1-.9999s.9999.4474.9999.9999v5.9997c0 .5524.4475.9999 1 .9999V19.4343c-.8625-.2225-1.4999-1.0024-1.4999-1.9349 0-.9324.6374-1.7124 1.4999-1.9349v-2.5649l1.4999-1.7499 1.4999 1.25 1.4999-1.4999 1.4999 1.4999 1.5-1.4999 1.4999 1.4999 1.4999-1.4999 1.4999 1.4999 1.4999-1.4999 1.5 1.4999 1.4999-1.25 1.4999 1.7499v2.5649c.8625.2225 1.4999 1.0025 1.4999 1.9349 0 .9325-.6374 1.7124-1.4999 1.9349v1.5649H54.0032c-1.1024 0-1.9999.8975-1.9999 1.9999s.8975 1.9999 1.9999 1.9999h12.9993v15.0717c3.3998.49 5.9997 3.4473 5.9997 6.9271v1.2924Z"/>
  <path fill="#E2CBB5" d="m78.3387 27.2298-11.636 5.6251-3.0465-6.3019 11.636-5.6251-1.5977 3.3463 3.7106-.4804-2.6813 2.6096 3.6149.8264Z"/>
  <path fill="#F9E5D2" d="M43.3873 26.0454c.0412-.0192.0809-.0348.1164-.0466l-.1164.0466c-.2485.1153-.555.3603-.3835.7033.0561.1124.1301.2701.2073.4388.2336.5101-.0132 1.1085-.5341 1.3169-.5098.2039-1.0885-.0441-1.2924-.5539l-.3807-.9518 2.3834-.9533Z"/>
  <path fill="#BF6C35" d="M49.0781 12.1006c0-3.91134 2.1819-6.15553 5.9845-6.15553h5.9845c3.8027 0 5.9845 2.24419 5.9845 6.15553v1.0259c-.4364 0-.5922-.2565-.748-.513-.1559-.2565-.3117-.5129-.7481-.5129s-.5922.2564-.7481.5129c-.1558.2565-.3117.513-.748.513-.4364 0-.5922-.2565-.7481-.513-.1558-.2565-.3117-.5129-.7481-.5129-.4363 0-.5922.2564-.748.5129-.1559.2565-.3117.513-.7481.513-.4363 0-.5922-.2565-.748-.513-.1559-.2565-.3117-.5129-.7481-.5129s-.5922.2564-.7481.5129c-.1558.2565-.3117.513-.748.513-.4364 0-.5922-.2565-.7481-.513-.1558-.2565-.3117-.5129-.7481-.5129-.4363 0-.5922.2564-.748.5129-.1559.2565-.3117.513-.7481.513-.4363 0-.5922-.2565-.748-.513-.1559-.2565-.3117-.5129-.7481-.5129s-.5922.2564-.7481.5129c-.1558.2565-.3117.513-.748.513-.4364 0-.5922-.2565-.7481-.513-.1558-.2565-.3117-.5129-.7481-.5129-.4363 0-.5922.2564-.748.5129-.1559.2565-.3117.513-.7481.513v-1.0259Z"/>
  <path fill="#fff" d="M54.9999 18.7493c1.2426 0 2.2499-1.0073 2.2499-2.2499 0-1.2426-1.0073-2.2499-2.2499-2.2499-1.2426 0-2.2499 1.0073-2.2499 2.2499 0 1.2426 1.0073 2.2499 2.2499 2.2499Z"/>
  <path fill="#9FA628" d="M54.9999 17.7494c.6904 0 1.25-.5596 1.25-1.25 0-.6903-.5596-1.2499-1.25-1.2499-.6903 0-1.2499.5596-1.2499 1.2499 0 .6904.5596 1.25 1.2499 1.25Z"/>
  <path fill="#fff" d="M61.0038 18.7493c1.2426 0 2.2499-1.0073 2.2499-2.2499 0-1.2426-1.0073-2.2499-2.2499-2.2499-1.2426 0-2.2499 1.0073-2.2499 2.2499 0 1.2426 1.0073 2.2499 2.2499 2.2499Z"/>
  <path fill="#9FA628" d="M61.0038 17.7494c.6904 0 1.25-.5596 1.25-1.25 0-.6903-.5596-1.2499-1.25-1.2499-.6903 0-1.2499.5596-1.2499 1.2499 0 .6904.5596 1.25 1.2499 1.25Z"/>
  <path fill="#462B86" d="M70.0391 15.6554c0-.56 0-.8401.109-1.054a.99981.99981 0 0 1 .437-.437c.2139-.109.4939-.109 1.054-.109h3.7996c.56 0 .8401 0 1.054.109.1881.0959.3411.2489.437.437.109.2139.109.494.109 1.054v11.7992c0 .5601 0 .8401-.109 1.054a1.00033 1.00033 0 0 1-.437.437c-.2139.109-.494.109-1.054.109h-3.7996c-.5601 0-.8401 0-1.054-.109a.9993.9993 0 0 1-.437-.437c-.109-.2139-.109-.4939-.109-1.054V15.6554Z"/>
  <path fill="#7751A6" fill-rule="evenodd" d="M71.0391 14.5557c-.5523 0-1 .4477-1 1v11.9992c0 .5523.4477 1 1 1h3.9996c.5523 0 1-.4477 1-1V15.5557c0-.5523-.4477-1-1-1h-.4959c-.2761 0-.5.2238-.5.4999 0 .2762-.2238.5-.4999.5h-1c-.2761 0-.5-.2238-.5-.5 0-.2761-.2238-.4999-.4999-.4999h-.5039Z" clip-rule="evenodd"/>
  <circle cx="73.0429" cy="26.5546" r=".99995" fill="#E66464"/>
  <path fill="#F9E5D2" d="M74.7541 21.999c0-.5525.4475-1 1-1h2.2498c.5523 0 1 .4477 1 1v4.9996c0 .5523-.4477 1-1 1h-2.2498c-.5525 0-1-.4474-1-.9999s.4475-.9999 1-.9999h.25c.1375 0 .25-.1125.25-.25s-.1125-.25-.25-.25h-.25c-.5525 0-1-.4475-1-1 0-.5524.4475-.9999 1-.9999h.25c.1375 0 .25-.1125.25-.25s-.1125-.25-.25-.25h-.25c-.5525 0-1-.4475-1-.9999Z"/>
  <path fill="#D5D3DD" d="m25.996 24.9987-1-1.9999-.9999 1.9999.9999.4999 1-.4999Zm-3 0-1-1.9999-.9999 1.9999.9999.4999 1-.4999Zm-3 0-1-1.9999-.9999 1.9999.9999.4999 1-.4999Zm-3.0039 0-1-1.9999-.9999 1.9999.9999.4999 1-.4999Zm-2.9961.0001-1-1.9999-.9999 1.9999.9999.5 1-.5Zm10.5-3.9998-1 1.9999-.9999-1.9999.9999-.5 1 .5Zm-3 0-1 1.9999-.9999-1.9999.9999-.5 1 .5Zm-3 0-1 1.9999-.9999-1.9999.9999-.5 1 .5Zm-2.9961 0-1 1.9999L13.5 20.999l.9999-.5 1 .5Z"/>
  <path fill="#D5D3DD" d="m25.996 24.9984-1-1.9999-.9999 1.9999.9999.5 1-.5Zm-3 0-1-1.9999-.9999 1.9999.9999.5 1-.5Zm-3 0-1-1.9999-.9999 1.9999.9999.5 1-.5Zm-3.0039 0-1-1.9999-.9999 1.9999.9999.5 1-.5Zm-2.9961.0001-1-1.9998-.9999 1.9998.9999.5 1-.5Zm10.5-3.9997-1 1.9998-.9999-1.9998.9999-.5 1 .5Zm-3 0-1 1.9998-.9999-1.9998.9999-.5 1 .5Zm-3 0-1 1.9998-.9999-1.9998.9999-.5 1 .5Zm-2.9961 0-1 1.9998-.9999-1.9998.9999-.5 1 .5Z"/>
  <path fill="#9FA628" d="M25.9986 11.9996c0-1.6874-.43-3.0548-1.2374-4.05475l1.3224-1.32243c.39.24248.8699.37742 1.4149.37742.275 0 .5-.22499.5-.49998 0-.27498-.225-.49997-.5-.49997-.9524 0-1.4999-.54747-1.4999-1.49992 0-.27498-.225-.49997-.5-.49997s-.5.22499-.5.49997c0 .54497.135 1.02499.3775 1.41497l-1.3224 1.32243c-.9999-.80745-2.3674-1.23748-4.0548-1.23748h-5.9997c-1.6874 0-3.0548.43003-4.05474 1.23748L8.62203 5.91494c.24249-.38998.37748-.87.37748-1.41497C8.99951 4.22499 8.77452 4 8.49954 4s-.49997.22499-.49997.49997c0 .95245-.54747 1.49992-1.49992 1.49992-.27499 0-.49998.22499-.49998.49997 0 .27499.22499.49998.49998.49998.54497 0 1.02494-.13494 1.41492-.37742l1.32242 1.32243c-.80745.99995-1.23742 2.36735-1.23742 4.05475v19.9989c-.55247 0-.99995-.4475-.99995-1V23.074l-2.24988 2.9248-2.24988-2.9998v2.9998L0 26.9988v4.9997c0 3.8598 3.13983 6.9996 6.99962 6.9996h.99995v3.9998c0 .5525-.44748.9999-.99995.9999H2.99984v10.707l3.7073-3.7073h1.29243c2.72233 0 5.16973-1.56 6.32463-3.9998h9.6745c.5525 0 .9999.4474.9999.9999v3.9998h10.707l-3.7073-3.7073v-1.2924c0-3.4798-2.5999-6.4372-5.9997-6.9272V24.9989H12.9993c-1.1024 0-1.9999-.8975-1.9999-1.9999 0-1.1025.8975-1.9999 1.9999-1.9999h12.9993v-8.9995Z"/>
  <path fill="#C0C74E" d="M2.49986 25.9988 0 26.9987l2.49986 1.9999v-2.9998Z"/>
  <path fill="#9FA628" d="M37.707 27.1828 26.0209 32.703l-2.9897-6.329 11.6861-5.5202-1.6277 3.3318 3.7148-.447-2.7047 2.5853 3.6073.8589Z"/>
  <path fill="#fff" d="M13.996 18.7488c1.2425 0 2.2499-1.0073 2.2499-2.2499 0-1.2426-1.0074-2.2499-2.2499-2.2499-1.2426 0-2.2499 1.0073-2.2499 2.2499 0 1.2426 1.0073 2.2499 2.2499 2.2499Z"/>
  <path fill="#BF6C35" d="M13.996 17.7489c.6903 0 1.25-.5596 1.25-1.2499 0-.6904-.5597-1.25-1.25-1.25s-1.2499.5596-1.2499 1.25c0 .6903.5596 1.2499 1.2499 1.2499Z"/>
  <path fill="#fff" d="M19.9999 18.7488c1.2426 0 2.2499-1.0073 2.2499-2.2499 0-1.2426-1.0073-2.2499-2.2499-2.2499-1.2426 0-2.2499 1.0073-2.2499 2.2499 0 1.2426 1.0073 2.2499 2.2499 2.2499Z"/>
  <path fill="#BF6C35" d="M19.9999 17.7489c.6904 0 1.25-.5596 1.25-1.2499 0-.6904-.5596-1.25-1.25-1.25-.6903 0-1.2499.5596-1.2499 1.25 0 .6903.5596 1.2499 1.2499 1.2499Z"/>
  <path fill="#462B86" d="M29.0352 15.6554c0-.56 0-.8401.1089-1.054.0959-.1881.2489-.3411.4371-.437.2139-.109.4939-.109 1.054-.109h3.7996c.56 0 .8401 0 1.054.109.1881.0959.3411.2489.437.437.109.2139.109.494.109 1.054v11.7992c0 .5601 0 .8401-.109 1.054a1.00033 1.00033 0 0 1-.437.437c-.2139.109-.494.109-1.054.109h-3.7996c-.5601 0-.8401 0-1.054-.109a1.00004 1.00004 0 0 1-.4371-.437c-.1089-.2139-.1089-.4939-.1089-1.054V15.6554Z"/>
  <path fill="#7751A6" fill-rule="evenodd" d="M30.0352 14.5557c-.5523 0-1 .4477-1 1v11.9992c0 .5523.4477 1 1 1h3.9996c.5523 0 1-.4477 1-1V15.5557c0-.5523-.4477-1-1-1h-.4959c-.2761 0-.5.2238-.5.4999 0 .2762-.2238.5-.4999.5h-1c-.2761 0-.5-.2238-.5-.5 0-.2761-.2238-.4999-.4999-.4999h-.5039Z" clip-rule="evenodd"/>
  <circle cx="32.039" cy="26.5546" r=".99995" fill="#E66464"/>
  <path fill="#C0C74E" d="M32.8292 27.9986h4.1747c.5523 0 1-.4477 1-1V21.999c0-.5523-.4477-1-1-1h-4.1747l2.8948 2.3174-3.5498 1.1824 3.5498 1.1825-2.8948 2.3173Z"/>
  <path fill="#fff" d="M13.9999 18.749c1.2426 0 2.2499-1.0073 2.2499-2.2499 0-1.2425-1.0073-2.2498-2.2499-2.2498-1.2426 0-2.2499 1.0073-2.2499 2.2498 0 1.2426 1.0073 2.2499 2.2499 2.2499Z"/>
  <path fill="#BF6C35" d="M13.9999 17.7491c.6904 0 1.25-.5596 1.25-1.2499s-.5596-1.2499-1.25-1.2499c-.6903 0-1.2499.5596-1.2499 1.2499s.5596 1.2499 1.2499 1.2499Z"/>
  <path fill="#fff" d="M20.0077 18.749c1.2426 0 2.2499-1.0073 2.2499-2.2499 0-1.2425-1.0073-2.2498-2.2499-2.2498-1.2426 0-2.2499 1.0073-2.2499 2.2498 0 1.2426 1.0073 2.2499 2.2499 2.2499Z"/>
  <path fill="#BF6C35" d="M20.0077 17.7491c.6904 0 1.25-.5596 1.25-1.2499s-.5596-1.2499-1.25-1.2499c-.6903 0-1.2499.5596-1.2499 1.2499s.5596 1.2499 1.2499 1.2499Z"/>
</svg>